# xmcd
# Track frame offsets:
# 150
# 14222
# 31320
# 47330
# 62192
# 78167
# 93130
# 103092
# 120812
# 133937
# 148340
# 165187
# 183380
# 195947
# 209997
# 226337
# 242500
# 253312
#
# Disc length: 3523 seconds
# Revision: 0
# Processed by: cddbd v1.4PL0 Copyright (c) Steve Scherf et al.
# Submitted via: VisiTrax 2.9.5.181 - For more info visit www.synapsa.com
#
DISCID=f50dc112
DTITLE=Various Artist - Country Collection Disc 5
DYEAR=1999
DGENRE=Country
TTITLE0=Don Williams - I'm Just A Country Boy
TTITLE1=Dr Hook - Sylvia's Mother
TTITLE2=Bonnie Tyler - It's A Heartache
TTITLE3=Olivia Newton-John - Banks Of The Ohio
TTITLE4=Peters and Lee - Welcome Home
TTITLE5=John Denver - Take Me Home, Country Roads
TTITLE6=Lynn Anderson - Snowbird
TTITLE7=Bonnie Tyler - Lost in France
TTITLE8=Olivie Newton-John - If Not For You
TTITLE9=The Bellamy Brothers - If I Said You Had A Beautiful Body Would You Ho
TTITLE9=ld It Against Me
TTITLE10=Dolly Parton - Save The Last Dance For Me
TTITLE11=Rita Coolidge - (Your Love HAs Lifted Me) Higher And Higher
TTITLE12=Dolly Parton - I Can't Help Myself (Sugar Pie, honey Bunch)
TTITLE13=Billie Jo Spears - I Will Survive
TTITLE14=Kenny Rogers - The Wind Beneath My Wings
TTITLE15=Rita Coolidge - We're All Alone
TTITLE16=Roger Whitaker - I Can't Help It (If I'm Still In Love With You)
TTITLE17=Don Williams - It Must Be Love
EXTD=Data by Phil Taylor - Island of Jersey
EXTT0=
EXTT1=
EXTT2=
EXTT3=Trad.
EXTT4=(Lennie Peters former member of the Migil Five and East End pub pianis
EXTT4=t and Di Lee a dancer.  They won hughie Green's Opportunity Knocks on IT
EXTT4=V in Feb. 1973)
EXTT5=
EXTT6=
EXTT7=
EXTT8=Bob Dylan
EXTT9=
EXTT10=
EXTT11=
EXTT12=Brian and Eddie Holland, Lamont Dozier
EXTT13=
EXTT14=
EXTT15=Boz Scaggs (A Former member of Steve Miller's band)
EXTT16=Hank Williams
EXTT17=Bob McDill (Wrote many of Don Williams hit songs.)
PLAYORDER=
